<svg xmlns="http://www.w3.org/2000/svg" viewBox="0 0 1600 560" role="img" aria-labelledby="title desc">
  <title id="title">Codex Thread Rescue</title>
  <desc id="desc">Large banner for the Codex thread rescue skill repository.</desc>
  <defs>
    <linearGradient id="bg" x1="0%" y1="0%" x2="100%" y2="100%">
      <stop offset="0%" stop-color="#07111e"/>
      <stop offset="55%" stop-color="#0c2238"/>
      <stop offset="100%" stop-color="#0f3d3e"/>
    </linearGradient>
    <linearGradient id="wordmark" x1="0%" y1="0%" x2="100%" y2="0%">
      <stop offset="0%" stop-color="#f5f7fb"/>
      <stop offset="40%" stop-color="#d2ffe7"/>
      <stop offset="100%" stop-color="#7ff2c4"/>
    </linearGradient>
    <linearGradient id="accent" x1="0%" y1="0%" x2="100%" y2="100%">
      <stop offset="0%" stop-color="#7ff2c4"/>
      <stop offset="100%" stop-color="#64c4ff"/>
    </linearGradient>
    <radialGradient id="glow" cx="50%" cy="50%" r="50%">
      <stop offset="0%" stop-color="#7ff2c4" stop-opacity="0.28"/>
      <stop offset="100%" stop-color="#7ff2c4" stop-opacity="0"/>
    </radialGradient>
    <pattern id="grid" width="44" height="44" patternUnits="userSpaceOnUse">
      <path d="M 44 0 L 0 0 0 44" fill="none" stroke="#9fd3ff" stroke-opacity="0.1" stroke-width="1"/>
    </pattern>
    <filter id="soft-shadow" x="-20%" y="-20%" width="140%" height="140%">
      <feDropShadow dx="0" dy="18" stdDeviation="24" flood-color="#021018" flood-opacity="0.35"/>
    </filter>
  </defs>

  <rect width="1600" height="560" rx="40" fill="url(#bg)"/>
  <rect width="1600" height="560" rx="40" fill="url(#grid)"/>
  <circle cx="1260" cy="136" r="210" fill="url(#glow)"/>
  <circle cx="1350" cy="410" r="240" fill="url(#glow)"/>

  <g filter="url(#soft-shadow)">
    <rect x="88" y="110" width="192" height="192" rx="42" fill="#091a2b" stroke="#7ff2c4" stroke-opacity="0.45" stroke-width="4"/>
    <path d="M214 150h-56c-20 0-36 16-36 36v40c0 20 16 36 36 36h56" fill="none" stroke="url(#accent)" stroke-linecap="round" stroke-width="26"/>
    <circle cx="222" cy="186" r="18" fill="#64c4ff"/>
    <circle cx="222" cy="262" r="18" fill="#7ff2c4"/>
  </g>

  <g transform="translate(332 112)">
    <text x="0" y="142" fill="url(#wordmark)" font-family="'SF Pro Display','Segoe UI',Arial,sans-serif" font-size="126" font-weight="800" letter-spacing="8">CODEX</text>
    <text x="6" y="222" fill="#d8f3ff" font-family="'SF Pro Display','Segoe UI',Arial,sans-serif" font-size="56" font-weight="700" letter-spacing="6">THREAD RESCUE SKILL</text>
    <text x="6" y="284" fill="#9fd3ff" font-family="'SF Pro Text','Segoe UI',Arial,sans-serif" font-size="26" font-weight="500" letter-spacing="1.0">
      <tspan x="6" dy="0">Repair hidden local Desktop threads, broken deeplinks,</tspan>
      <tspan x="6" dy="36">and provider-filtered workspace history.</tspan>
    </text>
  </g>

  <g transform="translate(1088 430)">
    <rect x="0" y="0" width="420" height="62" rx="31" fill="#081723" stroke="#64c4ff" stroke-opacity="0.38" stroke-width="2"/>
    <text x="210" y="40" text-anchor="middle" textLength="340" lengthAdjust="spacingAndGlyphs" fill="#eaf7ff" font-family="'SF Pro Text','Segoe UI',Arial,sans-serif" font-size="20" font-weight="700" letter-spacing="0">sqlite + app-server + state</text>
  </g>
</svg>
